<svg width="70" height="70" viewBox="0 0 70 70" fill="none" xmlns="http://www.w3.org/2000/svg">
<circle cx="35" cy="35" r="35" fill="white"/>
<path d="M33 43.5C33 44.0523 32.5523 44.5 32 44.5L29 44.5C28.4477 44.5 28 44.0523 28 43.5L28 26.9536C28 26.4013 28.4477 25.9536 29 25.9536L32 25.9536C32.5523 25.9536 33 26.4013 33 26.9536L33 43.5Z" fill="#23BDEE"/>
<path d="M42 43.5C42 44.0523 41.5523 44.5 41 44.5L38 44.5C37.4477 44.5 37 44.0523 37 43.5L37 26.9536C37 26.4013 37.4477 25.9536 38 25.9536L41 25.9536C41.5523 25.9536 42 26.4013 42 26.9536L42 43.5Z" fill="#23BDEE"/>
</svg>
