<svg width="85" height="39" viewBox="0 0 85 39" fill="none" xmlns="http://www.w3.org/2000/svg">
<path d="M1.67816 13.7371C4.58797 10.5538 12.4301 4.58298 20.5199 6.16602C30.6322 8.14482 36.2502 13.7371 49.2147 13.7371C62.1792 13.7371 72.5508 -0.458606 83.8732 2.55257" stroke="#B2C4F0" stroke-width="3"/>
<path d="M1.67816 25.3406C4.58797 22.1573 12.4301 16.1865 20.5199 17.7695C30.6322 19.7483 36.2502 25.3406 49.2147 25.3406C62.1792 25.3406 72.5508 11.1449 83.8732 14.1561" stroke="#B2C4F0" stroke-width="3"/>
<path d="M1.67816 36.9441C4.58797 33.7608 12.4301 27.79 20.5199 29.3731C30.6322 31.3519 36.2502 36.9441 49.2147 36.9441C62.1792 36.9441 72.5508 22.7484 83.8732 25.7596" stroke="#B2C4F0" stroke-width="3"/>
</svg>
