<svg width="147" height="79" viewBox="0 0 147 79" fill="none" xmlns="http://www.w3.org/2000/svg">
<path d="M35.2574 2.24265C37.6005 -0.100494 41.3995 -0.100498 43.7426 2.24265L76.7574 35.2574C79.1005 37.6005 79.1005 41.3995 76.7574 43.7426L43.7427 76.7574C41.3995 79.1005 37.6005 79.1005 35.2574 76.7574L2.24265 43.7427C-0.100494 41.3995 -0.100498 37.6005 2.24265 35.2574L35.2574 2.24265Z" fill="#65DAFF"/>
<path d="M30.112 50.224C28.4693 50.224 26.9973 49.9573 25.696 49.424C24.3947 48.8907 23.3493 48.1013 22.56 47.056C21.792 46.0107 21.3867 44.752 21.344 43.28H27.168C27.2533 44.112 27.5413 44.752 28.032 45.2C28.5227 45.6267 29.1627 45.84 29.952 45.84C30.7627 45.84 31.4027 45.6587 31.872 45.296C32.3413 44.912 32.576 44.3893 32.576 43.728C32.576 43.1733 32.384 42.7147 32 42.352C31.6373 41.9893 31.1787 41.6907 30.624 41.456C30.0907 41.2213 29.3227 40.9547 28.32 40.656C26.8693 40.208 25.6853 39.76 24.768 39.312C23.8507 38.864 23.0613 38.2027 22.4 37.328C21.7387 36.4533 21.408 35.312 21.408 33.904C21.408 31.8133 22.1653 30.1813 23.68 29.008C25.1947 27.8133 27.168 27.216 29.6 27.216C32.0747 27.216 34.0693 27.8133 35.584 29.008C37.0987 30.1813 37.9093 31.824 38.016 33.936H32.096C32.0533 33.2107 31.7867 32.6453 31.296 32.24C30.8053 31.8133 30.176 31.6 29.408 31.6C28.7467 31.6 28.2133 31.7813 27.808 32.144C27.4027 32.4853 27.2 32.9867 27.2 33.648C27.2 34.3733 27.5413 34.9387 28.224 35.344C28.9067 35.7493 29.9733 36.1867 31.424 36.656C32.8747 37.1467 34.048 37.616 34.944 38.064C35.8613 38.512 36.6507 39.1627 37.312 40.016C37.9733 40.8693 38.304 41.968 38.304 43.312C38.304 44.592 37.9733 45.7547 37.312 46.8C36.672 47.8453 35.7333 48.6773 34.496 49.296C33.2587 49.9147 31.7973 50.224 30.112 50.224Z" fill="#113C49"/>
<path d="M53.8635 50L48.4235 42.512V50H42.9515V26.32H48.4235V39.408L53.8315 32.144H60.5835L53.1595 41.104L60.6475 50H53.8635Z" fill="#113C49"/>
<path d="M66.7648 30.288C65.8048 30.288 65.0154 30.0107 64.3968 29.456C63.7994 28.88 63.5008 28.176 63.5008 27.344C63.5008 26.4907 63.7994 25.7867 64.3968 25.232C65.0154 24.656 65.8048 24.368 66.7648 24.368C67.7034 24.368 68.4714 24.656 69.0688 25.232C69.6874 25.7867 69.9968 26.4907 69.9968 27.344C69.9968 28.176 69.6874 28.88 69.0688 29.456C68.4714 30.0107 67.7034 30.288 66.7648 30.288ZM69.4848 32.144V50H64.0128V32.144H69.4848Z" fill="#113C49"/>
<path d="M80.2023 26.32V50H74.7303V26.32H80.2023Z" fill="#113C49"/>
<path d="M90.9198 26.32V50H85.4478V26.32H90.9198Z" fill="#113C49"/>
<path d="M98.9173 30.288C97.9573 30.288 97.1679 30.0107 96.5493 29.456C95.9519 28.88 95.6533 28.176 95.6533 27.344C95.6533 26.4907 95.9519 25.7867 96.5493 25.232C97.1679 24.656 97.9573 24.368 98.9173 24.368C99.8559 24.368 100.624 24.656 101.221 25.232C101.84 25.7867 102.149 26.4907 102.149 27.344C102.149 28.176 101.84 28.88 101.221 29.456C100.624 30.0107 99.8559 30.288 98.9173 30.288ZM101.637 32.144V50H96.1653V32.144H101.637Z" fill="#113C49"/>
<path d="M117.763 31.952C119.853 31.952 121.517 32.6347 122.755 34C124.013 35.344 124.643 37.2 124.643 39.568V50H119.203V40.304C119.203 39.1093 118.893 38.1813 118.275 37.52C117.656 36.8587 116.824 36.528 115.779 36.528C114.733 36.528 113.901 36.8587 113.283 37.52C112.664 38.1813 112.355 39.1093 112.355 40.304V50H106.883V32.144H112.355V34.512C112.909 33.7227 113.656 33.104 114.595 32.656C115.533 32.1867 116.589 31.952 117.763 31.952Z" fill="#113C49"/>
<path d="M146.557 40.784C146.557 41.296 146.525 41.8293 146.461 42.384H134.077C134.163 43.4933 134.515 44.3467 135.133 44.944C135.773 45.52 136.552 45.808 137.469 45.808C138.835 45.808 139.784 45.232 140.317 44.08H146.141C145.843 45.2533 145.299 46.3093 144.509 47.248C143.741 48.1867 142.771 48.9227 141.597 49.456C140.424 49.9893 139.112 50.256 137.661 50.256C135.912 50.256 134.355 49.8827 132.989 49.136C131.624 48.3893 130.557 47.3227 129.789 45.936C129.021 44.5493 128.637 42.928 128.637 41.072C128.637 39.216 129.011 37.5947 129.757 36.208C130.525 34.8213 131.592 33.7547 132.957 33.008C134.323 32.2613 135.891 31.888 137.661 31.888C139.389 31.888 140.925 32.2507 142.269 32.976C143.613 33.7013 144.659 34.736 145.405 36.08C146.173 37.424 146.557 38.992 146.557 40.784ZM140.957 39.344C140.957 38.4053 140.637 37.6587 139.997 37.104C139.357 36.5493 138.557 36.272 137.597 36.272C136.68 36.272 135.901 36.5387 135.261 37.072C134.643 37.6053 134.259 38.3627 134.109 39.344H140.957Z" fill="#113C49"/>
</svg>
